# xmcd
#
# Track frame offsets: 
#        150
#        18236
#        32721
#        43080
#        57874
#        74009
#        105434
#        118248
#        142157
#        156798
#        178476
#        193466
#        221078
#        233511
#        252490
#
# Disc length: 3584 seconds
#
# Revision: 0
# Processed by: cddbd v1.5.2PL0 Copyright (c) Steve Scherf et al.
# Submitted via: ExactAudioCopy v0.95b4
#
DISCID=e90dfe0f
DTITLE=Hopkins, Lightnin' - Blues Hoot: Live at the Ash Groove
DYEAR=1961
DGENRE=Blues
TTITLE0=Introduction to Big Car Blues
TTITLE1=Big Car Blues
TTITLE2=Coffee House Blues
TTITLE3=Stool Pigeon Blues
TTITLE4=Ball of Twine
TTITLE5=Blues for Gamblers
TTITLE6=Right on That Shore
TTITLE7=Early Morning Blues
TTITLE8=Walk On
TTITLE9=Blues for the Lowlands
TTITLE10=Down by the Riverside
TTITLE11=Blowin' the Fuses
TTITLE12=Po' Boy
TTITLE13=I'm a Stranger Here
TTITLE14=Trouble in Mind
EXTD=
EXTT0=
EXTT1=
EXTT2=
EXTT3=
EXTT4=
EXTT5=
EXTT6=
EXTT7=
EXTT8=
EXTT9=
EXTT10=
EXTT11=
EXTT12=
EXTT13=
EXTT14=
PLAYORDER=
